<svg aria-hidden="true" style="position: absolute; width: 0; height: 0; overflow: hidden;" version="1.1" xmlns="http://www.w3.org/2000/svg" xmlns:xlink="http://www.w3.org/1999/xlink">
<defs>
<symbol id="icon-search-icon" viewBox="0 0 32 32">
<path fill="#fff" style="fill: var(--color1, #fff)" d="M14.667 2.667c-6.612 0-12 5.388-12 12s5.388 12 12 12c6.612 0 12-5.388 12-12s-5.388-12-12-12zM14.667 5.333c5.17 0 9.333 4.163 9.333 9.333s-4.163 9.333-9.333 9.333c-5.17 0-9.333-4.163-9.333-9.333s4.163-9.333 9.333-9.333z"></path>
<path fill="#fff" style="fill: var(--color1, #fff)" d="M22.198 20.87c-0.002 0-0.003 0-0.005 0-0.366 0-0.697 0.147-0.938 0.386l0-0c-0.243 0.242-0.393 0.576-0.393 0.945s0.15 0.704 0.393 0.945l5.802 5.797c0.241 0.241 0.575 0.39 0.943 0.39s0.701-0.149 0.943-0.39v0c0.241-0.241 0.39-0.575 0.39-0.943s-0.149-0.701-0.39-0.943l-5.802-5.802c-0.241-0.238-0.572-0.385-0.938-0.385-0.002 0-0.004 0-0.005 0h0z"></path>
</symbol>
<symbol id="icon-logo-icon" viewBox="0 0 32 32">
<path fill="#818181" style="fill: var(--color2, #818181)" d="M5.573 1.333c-2.326 0-4.24 1.914-4.24 4.24v20.854c0 2.326 1.914 4.24 4.24 4.24h20.854c2.326 0 4.24-1.914 4.24-4.24v-20.854c0-2.326-1.914-4.24-4.24-4.24zM5.573 4h20.854c0.885 0 1.573 0.688 1.573 1.573v20.854c0 0.885-0.688 1.573-1.573 1.573h-20.854c-0.885 0-1.573-0.688-1.573-1.573v-20.854c0-0.885 0.688-1.573 1.573-1.573z"></path>
<path fill="#818181" style="fill: var(--color2, #818181)" d="M9.333 1.333c-0.736 0-1.333 0.597-1.333 1.333v0 26.667c0 0.736 0.597 1.333 1.333 1.333v0c0.736 0 1.333-0.597 1.333-1.333v0-26.667c0-0.736-0.597-1.333-1.333-1.333v0z"></path>
<path fill="#818181" style="fill: var(--color2, #818181)" d="M22.667 1.333c-0.736 0-1.333 0.597-1.333 1.333v0 26.667c0 0.736 0.597 1.333 1.333 1.333v0c0.736 0 1.333-0.597 1.333-1.333v0-26.667c0-0.736-0.597-1.333-1.333-1.333v0z"></path>
<path fill="#818181" style="fill: var(--color2, #818181)" d="M2.667 14.667c-0.736 0-1.333 0.597-1.333 1.333v0c0 0.736 0.597 1.333 1.333 1.333v0h26.667c0.736 0 1.333-0.597 1.333-1.333v0c0-0.736-0.597-1.333-1.333-1.333v0z"></path>
<path fill="#818181" style="fill: var(--color2, #818181)" d="M2.667 8c-0.736 0-1.333 0.597-1.333 1.333v0c0 0.736 0.597 1.333 1.333 1.333v0h6.667c0.736 0 1.333-0.597 1.333-1.333v0c0-0.736-0.597-1.333-1.333-1.333v0z"></path>
<path fill="#818181" style="fill: var(--color2, #818181)" d="M2.667 21.333c-0.736 0-1.333 0.597-1.333 1.333v0c0 0.736 0.597 1.333 1.333 1.333v0h6.667c0.736 0 1.333-0.597 1.333-1.333v0c0-0.736-0.597-1.333-1.333-1.333v0z"></path>
<path fill="#818181" style="fill: var(--color2, #818181)" d="M22.667 21.333c-0.736 0-1.333 0.597-1.333 1.333v0c0 0.736 0.597 1.333 1.333 1.333v0h6.667c0.736 0 1.333-0.597 1.333-1.333v0c0-0.736-0.597-1.333-1.333-1.333v0z"></path>
<path fill="#818181" style="fill: var(--color2, #818181)" d="M22.667 8c-0.736 0-1.333 0.597-1.333 1.333v0c0 0.736 0.597 1.333 1.333 1.333v0h6.667c0.736 0 1.333-0.597 1.333-1.333v0c0-0.736-0.597-1.333-1.333-1.333v0z"></path>
</symbol>
<symbol id="icon-pointer-right-icon-2" viewBox="0 0 32 32">
<path d="M30.72 15.168c-0.608 0.672-1.472 1.024-2.4 1.024h-4.736c0.256 0.48 0.384 1.024 0.384 1.536 0 1.248-0.736 2.432-1.824 3.008 0.256 0.384 0.512 0.928 0.512 1.632 0 1.184-0.736 2.304-1.792 2.816 0.256 0.416 0.384 0.896 0.384 1.44 0.032 0.832-0.288 1.664-0.896 2.272-0.608 0.64-1.44 0.992-2.304 0.992h-8.032c-8.672-0.64-9.792-6.176-9.792-10.944 0-4.192 2.048-7.936 5.344-9.792 0.352-0.224 1.216-0.736 2.304-1.408l0.928-0.608c1.856-1.184 3.296-2.112 4.416-2.784l0.128-0.064c0.64-0.32 1.216-0.736 1.6-1.184 0.544-0.704 1.152-1.056 1.664-1.312 0.64-0.352 1.92-0.384 2.848 0.16 0.8 0.48 1.184 1.184 1.184 2.144 0 1.184-0.416 2.464-1.152 3.552-0.352 0.64-0.896 1.248-1.504 1.824h10.208c1.856 0 3.424 1.472 3.456 3.296 0 0.032 0 0.064 0 0.096 0 0.896-0.32 1.696-0.928 2.304zM15.968 8.992l0.224-0.16c0.768-0.576 1.472-1.312 1.888-2.016l0.032-0.032c0.544-0.8 0.864-1.824 0.864-2.656 0-0.384-0.128-0.576-0.416-0.768-0.416-0.256-1.088-0.224-1.28-0.128-0.416 0.224-0.8 0.416-1.152 0.896l-0.032 0.032c-0.544 0.608-1.312 1.216-2.144 1.6l-0.032 0.032c-1.088 0.64-2.496 1.568-4.32 2.72l-0.928 0.608c-1.12 0.672-1.984 1.216-2.368 1.44-2.784 1.568-4.544 4.8-4.544 8.384 0 4.544 0.992 8.8 8.288 9.344h7.936c0.416 0 0.832-0.16 1.152-0.48 0.288-0.288 0.448-0.704 0.448-1.12v-0.032c0-0.32-0.064-0.544-0.256-0.768l-0.128-0.16c-0.256-0.32-0.352-0.736-0.224-1.088s0.416-0.64 0.832-0.768l0.128-0.032c0.608-0.192 1.088-0.8 1.088-1.472 0-0.448-0.224-0.8-0.384-0.96l-0.096-0.16c-0.224-0.256-0.32-0.608-0.224-0.96 0.096-0.384 0.384-0.704 0.736-0.832l0.096-0.032c0.672-0.224 1.216-0.992 1.216-1.696 0-0.384-0.16-0.8-0.448-1.152l-0.128-0.16c-0.256-0.384-0.288-0.832-0.096-1.216s0.576-0.608 1.024-0.608h5.568c0.512 0 0.96-0.192 1.28-0.544s0.48-0.768 0.48-1.248c-0.032-0.928-0.864-1.728-1.856-1.728h-11.488c-0.48 0-0.928-0.288-1.088-0.768-0.032-0.096-0.064-0.224-0.064-0.352 0-0.352 0.16-0.704 0.416-0.96z"></path>
</symbol>
</defs>
</svg>
